<svg xmlns="http://www.w3.org/2000/svg" version="1.0" width="357.000000pt" height="206.000000pt" viewBox="0 0 357.000000 206.000000" preserveAspectRatio="xMidYMid meet">

<g transform="translate(0.000000,206.000000) scale(0.100000,-0.100000)" fill="#ffffff" stroke="none">
<path d="M833 2012 c-127 -45 -213 -166 -213 -297 l0 -42 -156 -11 c-86 -6 -158 -13 -161 -16 -5 -5 224 -1540 235 -1572 7 -19 22 -15 372 98 307 100 807 284 797 294 -11 11 -462 -113 -750 -206 -188 -60 -348 -110 -354 -110 -6 0 -16 37 -23 83 -6 45 -14 92 -17 105 -5 21 -3 22 65 22 94 0 165 15 239 50 73 34 154 105 179 158 9 20 39 65 66 99 44 57 49 70 58 140 13 104 45 151 105 154 l30 2 -28 4 c-63 10 -105 -50 -118 -164 -9 -84 -18 -107 -30 -75 -5 12 -15 22 -24 22 -24 0 -29 -29 -9 -51 17 -19 17 -20 -4 -42 l-22 -21 0 35 c0 61 -28 135 -76 198 -73 98 -195 146 -251 100 -7 -6 -13 -30 -13 -53 0 -47 35 -110 89 -160 17 -17 31 -33 31 -37 0 -4 -14 -10 -31 -14 -39 -9 -105 -67 -113 -101 -9 -35 16 -72 62 -91 55 -23 127 -10 204 37 35 21 65 36 67 35 8 -9 -44 -78 -82 -109 -86 -70 -197 -105 -328 -106 -61 0 -67 2 -72 23 -13 54 -180 1188 -176 1191 3 3 60 9 127 13 138 9 126 16 137 -79 6 -49 4 -61 -14 -84 -28 -36 -27 -76 5 -113 53 -64 154 -28 154 55 0 29 -7 44 -35 69 -28 27 -36 44 -44 96 -6 35 -9 64 -8 66 3 3 432 36 487 37 l35 1 8 -58 c7 -50 5 -61 -12 -84 -28 -35 -27 -85 3 -120 34 -39 98 -39 132 0 35 41 32 81 -12 125 -28 28 -38 47 -45 91 -6 37 -5 57 2 61 6 4 56 13 112 20 93 13 98 14 62 21 -22 4 -74 8 -116 8 l-77 1 -7 38 c-19 106 -95 205 -193 250 -75 34 -177 40 -249 14z m202 -69 c71 -25 138 -95 161 -166 10 -31 16 -58 13 -61 -4 -3 -461 -36 -501 -36 -25 0 -24 72 3 130 57 126 189 180 324 133z m-143 -999 c83 -42 154 -153 165 -258 5 -47 3 -56 -18 -75 -38 -36 -141 -89 -185 -96 -50 -8 -106 13 -129 49 -16 24 -16 27 2 58 12 22 38 43 75 62 57 28 58 28 99 12 45 -18 67 -10 55 20 -5 13 -15 15 -44 12 -33 -5 -43 -1 -75 28 -94 86 -125 173 -74 209 26 18 61 13 129 -21z m228 -224 c0 -21 -15 -27 -25 -10 -7 12 2 30 16 30 5 0 9 -9 9 -20z m-172 -17 c5 -18 -10 -16 -34 2 -18 15 -18 15 5 13 14 -2 26 -9 29 -15z" fill="#ffffff"/>
<path d="M1551 1718 c-5 -13 -17 -72 -26 -133 -22 -142 -67 -350 -107 -493 -31 -112 -32 -114 -70 -129 -71 -29 -116 -106 -83 -143 48 -53 131 -3 175 104 l24 56 55 0 c80 0 186 25 237 55 l44 26 0 -56 c0 -76 21 -114 62 -115 25 0 85 56 115 108 l27 45 17 -40 c21 -51 53 -73 101 -73 31 0 45 7 78 40 22 22 42 51 46 65 5 21 12 25 43 25 20 1 61 9 91 20 30 11 81 19 114 20 51 0 57 -2 51 -17 -11 -27 -18 -138 -11 -167 22 -87 125 -34 210 108 20 33 36 53 36 45 0 -62 45 -129 86 -129 29 0 80 43 103 88 l19 36 7 -64 c10 -98 23 -137 51 -159 21 -16 30 -18 50 -9 25 12 70 93 80 147 l6 30 38 -40 c58 -61 122 -54 206 23 52 48 139 157 131 164 -3 3 -25 -21 -51 -54 -96 -126 -181 -179 -216 -137 -17 20 -24 84 -13 124 7 26 16 37 38 44 68 22 135 95 135 148 0 14 -9 35 -20 47 -44 46 -119 16 -173 -70 -47 -76 -58 -103 -78 -202 -29 -140 -85 -230 -103 -164 -16 62 6 248 44 369 11 35 20 74 20 86 0 25 -45 64 -64 57 -7 -3 -21 -31 -32 -62 -10 -31 -19 -58 -20 -60 -1 -2 -13 8 -27 22 -30 29 -55 32 -96 11 -41 -20 -76 -67 -96 -122 -46 -135 -153 -298 -183 -279 -17 10 -15 76 5 157 9 38 13 72 10 76 -4 3 -34 -2 -66 -12 -33 -10 -67 -15 -77 -11 -17 6 -17 17 2 97 7 29 -16 59 -46 59 -35 0 -66 -120 -38 -148 7 -7 8 -15 3 -21 -16 -14 -76 -31 -111 -31 l-34 0 0 70 c0 107 -29 150 -101 150 -49 0 -110 -69 -139 -156 -25 -78 -76 -167 -115 -204 -22 -21 -28 -22 -35 -10 -16 25 -11 103 11 186 35 128 35 140 4 160 -17 11 -29 14 -36 7 -5 -5 -20 -52 -32 -104 -23 -92 -24 -95 -70 -126 -49 -33 -103 -47 -221 -59 -65 -6 -69 -6 -62 12 27 67 156 639 156 691 0 11 -49 43 -65 43 -3 0 -9 -10 -14 -22z m1883 -423 c7 -20 -10 -64 -37 -93 -22 -24 -96 -67 -103 -60 -7 8 48 114 74 141 28 30 57 35 66 12z m-434 -24 c22 -43 -4 -174 -50 -248 -26 -42 -66 -46 -76 -7 -16 62 13 197 52 244 29 34 59 39 74 11z m-756 -33 c18 -25 21 -114 6 -138 -25 -40 -77 91 -57 144 9 23 33 20 51 -6z m-100 -72 c3 -13 27 -43 53 -66 l47 -41 -19 -35 c-19 -35 -59 -74 -77 -74 -5 0 -20 11 -33 25 -21 20 -25 34 -25 79 0 54 24 136 40 136 4 0 11 -11 14 -24z m-788 -254 c-8 -16 -30 -42 -48 -57 -33 -28 -33 -28 -36 -6 -5 29 21 67 61 91 37 23 45 14 23 -28z" fill="#ffffff"/>
<path d="M218 1560 c-9 -30 -22 -75 -28 -100 -9 -39 -130 -1282 -130 -1338 0 -21 1 -21 55 4 66 31 175 42 231 24 21 -7 56 -25 76 -42 43 -33 47 -29 17 13 -46 65 -191 120 -264 100 -33 -9 -35 -8 -35 16 0 14 25 287 55 607 45 480 53 598 47 676 l-8 95 -16 -55z" fill="#ffffff"/>
<path d="M1922 1438 c-5 -7 -15 -30 -23 -50 -15 -43 -2 -68 35 -68 24 0 56 45 56 78 0 40 -46 66 -68 40z" fill="#ffffff"/>
<path d="M1523 680 c0 -36 2 -50 4 -32 2 17 2 47 0 65 -2 17 -4 3 -4 -33z" fill="#ffffff"/>
<path d="M1942 680 c0 -58 1 -61 8 -26 4 22 4 51 0 65 -6 19 -8 7 -8 -39z" fill="#ffffff"/>
<path d="M2705 730 c-3 -6 1 -7 9 -4 18 7 21 14 7 14 -6 0 -13 -4 -16 -10z" fill="#ffffff"/>
<path d="M1820 721 c-10 -25 4 -94 20 -98 10 -3 11 -2 3 4 -6 5 -13 31 -15 58 -2 28 -5 44 -8 36z" fill="#ffffff"/>
<path d="M2884 681 c1 -39 5 -56 16 -58 10 -3 11 -2 3 4 -6 5 -14 31 -16 58 l-4 50 1 -54z" fill="#ffffff"/>
<path d="M1987 700 c6 -8 13 -31 16 -50 l4 -35 1 36 c1 24 -4 41 -15 50 -16 12 -16 12 -6 -1z" fill="#ffffff"/>
<path d="M2277 700 c6 -8 13 -31 16 -50 l4 -35 1 36 c1 24 -4 41 -15 50 -16 12 -16 12 -6 -1z" fill="#ffffff"/>
<path d="M2406 694 c-20 -19 -20 -35 -2 -59 8 -12 20 -16 35 -12 23 6 29 -11 9 -31 -8 -8 -8 -12 -1 -12 6 0 14 7 17 16 9 22 7 104 -2 104 -4 0 -7 -15 -7 -32 0 -27 -4 -34 -22 -36 -20 -3 -23 1 -23 27 0 18 7 34 18 40 9 6 12 11 5 11 -6 0 -19 -7 -27 -16z" fill="#ffffff"/>
<path d="M2700 700 c0 -6 14 -16 30 -21 31 -11 41 -43 18 -52 -10 -4 -10 -6 -1 -6 7 -1 17 7 22 18 8 14 6 22 -7 32 -32 26 -62 40 -62 29z" fill="#ffffff"/>
<path d="M1360 685 c-21 -25 3 -65 37 -64 l28 1 -25 7 c-20 6 -25 14 -25 39 0 37 1 36 -15 17z" fill="#ffffff"/>
<path d="M1634 674 c-5 -18 -1 -31 11 -42 16 -16 17 -16 6 6 -7 12 -9 32 -6 42 4 11 4 20 1 20 -3 0 -9 -12 -12 -26z" fill="#ffffff"/>
<path d="M1698 663 c4 -30 6 -34 12 -18 6 16 -3 55 -13 55 -2 0 -1 -17 1 -37z" fill="#ffffff"/>
<path d="M2123 660 c0 -25 2 -35 4 -22 2 12 2 32 0 45 -2 12 -4 2 -4 -23z" fill="#ffffff"/>
<path d="M2230 660 c0 -22 2 -40 4 -40 2 0 6 18 8 40 2 22 0 40 -4 40 -5 0 -8 -18 -8 -40z" fill="#ffffff"/>
<path d="M3004 674 c-5 -18 -1 -31 11 -42 16 -16 17 -16 6 6 -7 12 -9 32 -6 42 4 11 4 20 1 20 -3 0 -9 -12 -12 -26z" fill="#ffffff"/>
<path d="M3068 663 c4 -30 6 -34 12 -18 6 16 -3 55 -13 55 -2 0 -1 -17 1 -37z" fill="#ffffff"/>
<path d="M3180 660 c0 -22 2 -40 4 -40 2 0 6 18 8 40 2 22 0 40 -4 40 -5 0 -8 -18 -8 -40z" fill="#ffffff"/>
<path d="M3314 675 c-6 -25 9 -55 28 -55 5 0 3 7 -6 15 -8 9 -13 26 -10 40 6 33 -4 32 -12 0z" fill="#ffffff"/>
<path d="M3373 682 c0 -12 5 -22 9 -22 11 0 10 12 -2 30 -7 12 -9 10 -7 -8z" fill="#ffffff"/>
<path d="M2690 646 c0 -2 8 -10 18 -17 15 -13 16 -12 3 4 -13 16 -21 21 -21 13z" fill="#ffffff"/>
</g>
</svg>